<?xml version="1.0" encoding="utf-8"?>
<!-- Generator: Adobe Illustrator 22.0.0, SVG Export Plug-In . SVG Version: 6.00 Build 0)  -->
<svg version="1.1" id="Layer_1" xmlns="http://www.w3.org/2000/svg" xmlns:xlink="http://www.w3.org/1999/xlink" x="0px" y="0px"
	 viewBox="0 0 40.7 41" style="enable-background:new 0 0 40.7 41;" xml:space="preserve">
<style type="text/css">
	.st0{fill:none;stroke:#520254;stroke-miterlimit:10;}
	.st1{fill:#520254;}
</style>
<ellipse class="st0" cx="20.4" cy="20.5" rx="19.9" ry="20"/>
<ellipse class="st0" cx="20.4" cy="20.5" rx="19.9" ry="20"/>
<g>
	<g>
		<path class="st1" d="M15.6,18.9v3.2c0,0,3,0,4.2,0c-0.7,2.1-1.7,3.2-4.2,3.2S11,23.1,11,20.5s2-4.8,4.6-4.8c1.4,0,2.3,0.5,3,1.2
			c0.7-0.7,0.6-0.8,2.3-2.4c-1.4-1.3-3.2-2.1-5.3-2.1c-4.3,0-7.9,3.6-7.9,8.1s3.5,8.1,7.9,8.1c6.5,0,8.1-5.8,7.5-9.7
			C21.7,18.9,15.6,18.9,15.6,18.9z M29.8,19v-2.8h-1.9V19h-2.8v2h2.8v2.8h1.9V21h2.7v-2H29.8z"/>
	</g>
</g>
</svg>
