<?xml version="1.0" encoding="utf-8"?>
<!-- Generator: Adobe Illustrator 22.0.0, SVG Export Plug-In . SVG Version: 6.00 Build 0)  -->
<svg version="1.1" id="Layer_1" xmlns="http://www.w3.org/2000/svg" xmlns:xlink="http://www.w3.org/1999/xlink" x="0px" y="0px"
	 viewBox="0 0 40.7 41" style="enable-background:new 0 0 40.7 41;" xml:space="preserve">
<style type="text/css">
	.st0{fill:none;stroke:#520254;stroke-miterlimit:10;}
	.st1{fill:#520254;}
</style>
<ellipse class="st0" cx="20.4" cy="20.5" rx="19.9" ry="20"/>
<path class="st1" d="M29.8,16.5l0-0.1c-0.1-0.7-0.6-2.5-1.2-3l-0.1-0.1c-0.7-0.8-1.5-1.5-3.5-1.7c-0.2,0-0.3,0-0.4,0
	c-1.7,0-2.7,1-3.4,2.1c-0.4,0.5-0.6,1.3-0.9,2.2c-0.3,0.9-0.6,1.9-1.1,2.6c-1.1,1.5-3,1.8-4,1.8c-0.1,0-0.1,0-0.2,0
	c-1.2,0-2.7-0.4-4-1.1c-0.7-0.4-1.3-1-1.8-1.5c-0.1,0.8-0.1,2-0.1,3c0.2,2.2,1.3,4.5,2.8,6.1c1.9,1.8,4.5,2.7,8,2.7
	c5.2,0,7.6-3.9,8.5-5.4c1.1-1.8,1.2-4.1,1.2-4.1v-0.2l2.9-1.8L29.8,16.5z M26.5,17c-0.6,0-1.2-0.5-1.2-1.2s0.5-1.2,1.2-1.2
	c0.7,0,1.2,0.5,1.2,1.2S27.1,17,26.5,17z"/>
</svg>
